<svg width="1477" height="820" viewBox="0 0 1477 820" fill="none" xmlns="http://www.w3.org/2000/svg">
<g clip-path="url(#clip0_)">
<rect width="1440" height="820" transform="translate(36)" fill="#121214"/>
<circle cx="917" cy="-137" r="559" transform="rotate(-180 917 -137)" fill="url(#paint0_radial_)"/>
<circle cx="595" cy="-137" r="559" transform="rotate(-180 595 -137)" fill="url(#paint1_radial_)"/>
<mask id="mask0_" style="mask-type:alpha" maskUnits="userSpaceOnUse" x="1" y="0" width="1475" height="254">
<rect x="1" width="1475" height="254" fill="#202024"/>
</mask>
<g mask="url(#mask0_)">
<path d="M1519.09 59.7181V-90.0543L799.075 -123.771L79.0632 -90.0543V59.7181L799.075 93.4367L1519.09 59.7181Z" fill="url(#paint2_linear_)"/>
<g style="mix-blend-mode:luminosity" opacity="0.4">
<path d="M86.2872 26.339V59.936L444.487 76.736L802.688 59.936V26.339L444.487 9.53895L86.2872 26.339Z" fill="url(#paint3_linear_)"/>
<path d="M86.2872 -7.25953V26.3374L444.487 43.1375L802.688 26.3374V-7.25953L444.487 -24.0596L86.2872 -7.25953Z" fill="url(#paint4_linear_)"/>
<path d="M1160.89 -24.0509V9.54601L802.688 26.3461L444.487 9.54601V-24.0509L802.688 -40.851L1160.89 -24.0509Z" fill="url(#paint5_linear_)"/>
<path d="M802.682 59.9364V26.3395L1160.88 9.53944L1519.08 26.3395V59.9364L1160.88 76.7365L802.682 59.9364Z" fill="url(#paint6_linear_)"/>
<path d="M1519.09 -7.25953V26.3374L1160.89 43.1375L802.688 26.3374V-7.25953L1160.89 -24.0596L1519.09 -7.25953Z" fill="url(#paint7_linear_)"/>
<path d="M1160.89 76.7431V43.1462L802.688 26.3461L444.487 43.1462L444.487 76.7431L802.688 93.5432L1160.89 76.7431Z" fill="url(#paint8_linear_)"/>
</g>
<path d="M1475.56 64.6941V-85.0784L755.551 -118.795L35.5386 -85.0784V64.6941L755.551 98.4127L1475.56 64.6941Z" fill="url(#paint9_linear_)"/>
<g style="mix-blend-mode:luminosity" opacity="0.4">
<path d="M42.7625 31.315V64.912L400.963 81.712L759.163 64.912V31.315L400.963 14.515L42.7625 31.315Z" fill="url(#paint10_linear_)"/>
<path d="M42.7625 -2.28354V31.3134L400.963 48.1135L759.163 31.3134V-2.28354L400.963 -19.0836L42.7625 -2.28354Z" fill="url(#paint11_linear_)"/>
<path d="M1117.36 -19.0749V14.522L759.163 31.3221L400.963 14.522V-19.0749L759.163 -35.875L1117.36 -19.0749Z" fill="url(#paint12_linear_)"/>
<path d="M759.156 64.9123V31.3154L1117.36 14.5153L1475.56 31.3154V64.9123L1117.36 81.7124L759.156 64.9123Z" fill="url(#paint13_linear_)"/>
<path d="M1475.56 -2.28354V31.3134L1117.36 48.1135L759.163 31.3134V-2.28354L1117.36 -19.0836L1475.56 -2.28354Z" fill="url(#paint14_linear_)"/>
<path d="M1117.36 81.7191V48.1221L759.163 31.3221L400.963 48.1221L400.963 81.7191L759.163 98.5191L1117.36 81.7191Z" fill="url(#paint15_linear_)"/>
</g>
</g>
<mask id="mask1_" style="mask-type:alpha" maskUnits="userSpaceOnUse" x="35" y="565" width="1477" height="258">
<rect x="1510.81" y="822.106" width="1475" height="254" transform="rotate(-179.914 1510.81 822.106)" fill="#202024"/>
</mask>
<g mask="url(#mask1_)">
<path d="M-7.18718 760.111L-7.41187 909.883L712.549 944.68L1432.61 912.043L1432.84 762.271L712.875 727.472L-7.18718 760.111Z" fill="url(#paint16_linear_)"/>
<g style="mix-blend-mode:luminosity" opacity="0.4">
<path d="M1425.56 795.639L1425.61 762.042L1067.44 744.705L709.212 760.968L709.162 794.565L1067.34 811.902L1425.56 795.639Z" fill="url(#paint17_linear_)"/>
<path d="M1425.51 829.238L1425.56 795.641L1067.39 778.304L709.162 794.566L709.111 828.163L1067.29 845.501L1425.51 829.238Z" fill="url(#paint18_linear_)"/>
<path d="M350.886 844.417L350.936 810.82L709.161 794.558L1067.34 811.895L1067.29 845.492L709.061 861.755L350.886 844.417Z" fill="url(#paint19_linear_)"/>
<path d="M709.217 760.967L709.167 794.564L350.942 810.827L-7.23276 793.489L-7.18236 759.892L351.043 743.63L709.217 760.967Z" fill="url(#paint20_linear_)"/>
<path d="M-7.2883 827.088L-7.2379 793.491L350.987 777.229L709.162 794.566L709.111 828.163L350.886 844.426L-7.2883 827.088Z" fill="url(#paint21_linear_)"/>
<path d="M351.037 743.623L350.987 777.22L709.161 794.558L1067.39 778.295L1067.44 744.698L709.262 727.361L351.037 743.623Z" fill="url(#paint22_linear_)"/>
</g>
<path d="M36.3448 755.2L36.1201 904.972L756.081 939.769L1476.14 907.133L1476.37 757.36L756.407 722.562L36.3448 755.2Z" fill="url(#paint23_linear_)"/>
<g style="mix-blend-mode:luminosity" opacity="0.4">
<path d="M1469.09 790.729L1469.14 757.132L1110.97 739.794L752.744 756.057L752.694 789.654L1110.87 806.991L1469.09 790.729Z" fill="url(#paint24_linear_)"/>
<path d="M1469.04 824.327L1469.09 790.73L1110.92 773.393L752.694 789.656L752.643 823.252L1110.82 840.59L1469.04 824.327Z" fill="url(#paint25_linear_)"/>
<path d="M394.418 839.506L394.468 805.909L752.693 789.647L1110.87 806.984L1110.82 840.581L752.593 856.844L394.418 839.506Z" fill="url(#paint26_linear_)"/>
<path d="M752.751 756.057L752.701 789.654L394.476 805.916L36.3012 788.579L36.3516 754.982L394.577 738.719L752.751 756.057Z" fill="url(#paint27_linear_)"/>
<path d="M36.2437 822.178L36.2941 788.581L394.519 772.318L752.694 789.656L752.643 823.252L394.418 839.515L36.2437 822.178Z" fill="url(#paint28_linear_)"/>
<path d="M394.569 738.712L394.519 772.309L752.693 789.647L1110.92 773.384L1110.97 739.787L752.794 722.45L394.569 738.712Z" fill="url(#paint29_linear_)"/>
</g>
</g>
</g>
<g clip-path="url(#clip1_)">
<path d="M1477 251H0V287H1477V251Z" fill="#E5E5E5"/>
<path d="M1477 253H37V1073H1477V253Z" fill="#121214"/>
<path d="M918 -443C609.273 -443 359 -192.727 359 116C359 424.727 609.273 675 918 675C1226.73 675 1477 424.727 1477 116C1477 -192.727 1226.73 -443 918 -443Z" fill="url(#paint30_radial_)"/>
<path d="M596 -443C287.273 -443 37 -192.727 37 116C37 424.727 287.273 675 596 675C904.727 675 1155 424.727 1155 116C1155 -192.727 904.727 -443 596 -443Z" fill="url(#paint31_radial_)"/>
<mask id="mask2_" style="mask-type:alpha" maskUnits="userSpaceOnUse" x="2" y="253" width="1475" height="254">
<path d="M1477 253H2V507H1477V253Z" fill="#202024"/>
</mask>
<g mask="url(#mask2_)">
<path d="M1520.09 312.718V162.946L800.075 129.229L80.0632 162.946V312.718L800.075 346.437L1520.09 312.718Z" fill="url(#paint32_linear_)"/>
<g style="mix-blend-mode:luminosity" opacity="0.4">
<path style="mix-blend-mode:luminosity" opacity="0.4" d="M87.2872 279.339V312.936L445.487 329.736L803.688 312.936V279.339L445.487 262.539L87.2872 279.339Z" fill="url(#paint33_linear_)"/>
<path style="mix-blend-mode:luminosity" opacity="0.4" d="M87.2872 245.74V279.337L445.487 296.137L803.688 279.337V245.74L445.487 228.94L87.2872 245.74Z" fill="url(#paint34_linear_)"/>
<path style="mix-blend-mode:luminosity" opacity="0.4" d="M1161.89 228.949V262.546L803.688 279.346L445.487 262.546V228.949L803.688 212.149L1161.89 228.949Z" fill="url(#paint35_linear_)"/>
<path style="mix-blend-mode:luminosity" opacity="0.4" d="M803.682 312.936V279.339L1161.88 262.539L1520.08 279.339V312.936L1161.88 329.737L803.682 312.936Z" fill="url(#paint36_linear_)"/>
<path style="mix-blend-mode:luminosity" opacity="0.4" d="M1520.09 245.74V279.337L1161.89 296.137L803.688 279.337V245.74L1161.89 228.94L1520.09 245.74Z" fill="url(#paint37_linear_)"/>
<path style="mix-blend-mode:luminosity" opacity="0.4" d="M1161.89 329.743V296.146L803.688 279.346L445.487 296.146V329.743L803.688 346.543L1161.89 329.743Z" fill="url(#paint38_linear_)"/>
</g>
<path d="M1476.56 317.694V167.922L756.551 134.205L36.5386 167.922V317.694L756.551 351.413L1476.56 317.694Z" fill="url(#paint39_linear_)"/>
<g style="mix-blend-mode:luminosity" opacity="0.4">
<path style="mix-blend-mode:luminosity" opacity="0.4" d="M43.7625 284.315V317.912L401.963 334.712L760.163 317.912V284.315L401.963 267.515L43.7625 284.315Z" fill="url(#paint40_linear_)"/>
<path style="mix-blend-mode:luminosity" opacity="0.4" d="M43.7625 250.716V284.313L401.963 301.113L760.163 284.313V250.716L401.963 233.916L43.7625 250.716Z" fill="url(#paint41_linear_)"/>
<path style="mix-blend-mode:luminosity" opacity="0.4" d="M1118.36 233.925V267.522L760.163 284.322L401.963 267.522V233.925L760.163 217.125L1118.36 233.925Z" fill="url(#paint42_linear_)"/>
<path style="mix-blend-mode:luminosity" opacity="0.4" d="M760.156 317.912V284.315L1118.36 267.515L1476.56 284.315V317.912L1118.36 334.712L760.156 317.912Z" fill="url(#paint43_linear_)"/>
<path style="mix-blend-mode:luminosity" opacity="0.4" d="M1476.56 250.716V284.313L1118.36 301.113L760.163 284.313V250.716L1118.36 233.916L1476.56 250.716Z" fill="url(#paint44_linear_)"/>
<path style="mix-blend-mode:luminosity" opacity="0.4" d="M1118.36 334.719V301.122L760.163 284.322L401.963 301.122V334.719L760.163 351.519L1118.36 334.719Z" fill="url(#paint45_linear_)"/>
</g>
</g>
</g>
<defs>
<radialGradient id="paint0_radial_" cx="0" cy="0" r="1" gradientUnits="userSpaceOnUse" gradientTransform="translate(917 -137) rotate(90) scale(559)">
<stop stop-color="#FFC323"/>
<stop offset="1" stop-color="#121214" stop-opacity="0"/>
</radialGradient>
<radialGradient id="paint1_radial_" cx="0" cy="0" r="1" gradientUnits="userSpaceOnUse" gradientTransform="translate(595 -137) rotate(90) scale(559)">
<stop stop-color="#FF3D6E"/>
<stop offset="1" stop-color="#121214" stop-opacity="0"/>
</radialGradient>
<linearGradient id="paint2_linear_" x1="-181.665" y1="25.5712" x2="-66.7383" y2="510.906" gradientUnits="userSpaceOnUse">
<stop stop-color="#FF008E"/>
<stop offset="1" stop-color="#FFCD1E"/>
</linearGradient>
<linearGradient id="paint3_linear_" x1="444.487" y1="75.1909" x2="441.315" y2="8.72999" gradientUnits="userSpaceOnUse">
<stop stop-color="#8257E5"/>
<stop offset="1" stop-color="#FF008E" stop-opacity="0"/>
</linearGradient>
<linearGradient id="paint4_linear_" x1="444.487" y1="41.5923" x2="441.315" y2="-24.8686" gradientUnits="userSpaceOnUse">
<stop stop-color="#8257E5"/>
<stop offset="1" stop-color="#FF008E" stop-opacity="0"/>
</linearGradient>
<linearGradient id="paint5_linear_" x1="444.488" y1="-25.9391" x2="461.954" y2="103.437" gradientUnits="userSpaceOnUse">
<stop stop-color="#FF008E" stop-opacity="0"/>
<stop offset="1" stop-color="#FFCD1E"/>
</linearGradient>
<linearGradient id="paint6_linear_" x1="1519.08" y1="61.8246" x2="1501.62" y2="-67.5516" gradientUnits="userSpaceOnUse">
<stop stop-color="#FF008E" stop-opacity="0"/>
<stop offset="1" stop-color="#FFCD1E"/>
</linearGradient>
<linearGradient id="paint7_linear_" x1="1160.89" y1="41.5923" x2="1164.06" y2="-24.8686" gradientUnits="userSpaceOnUse">
<stop stop-color="#8257E5"/>
<stop offset="1" stop-color="#FF008E" stop-opacity="0"/>
</linearGradient>
<linearGradient id="paint8_linear_" x1="802.688" y1="27.8912" x2="805.86" y2="94.3521" gradientUnits="userSpaceOnUse">
<stop stop-color="#8257E5"/>
<stop offset="1" stop-color="#FF008E" stop-opacity="0"/>
</linearGradient>
<linearGradient id="paint9_linear_" x1="-225.19" y1="30.5472" x2="-110.263" y2="515.882" gradientUnits="userSpaceOnUse">
<stop stop-color="#FF008E"/>
<stop offset="1" stop-color="#FFCD1E"/>
</linearGradient>
<linearGradient id="paint10_linear_" x1="400.963" y1="80.1669" x2="397.79" y2="13.706" gradientUnits="userSpaceOnUse">
<stop stop-color="#8257E5"/>
<stop offset="1" stop-color="#FF008E" stop-opacity="0"/>
</linearGradient>
<linearGradient id="paint11_linear_" x1="400.963" y1="46.5683" x2="397.79" y2="-19.8926" gradientUnits="userSpaceOnUse">
<stop stop-color="#8257E5"/>
<stop offset="1" stop-color="#FF008E" stop-opacity="0"/>
</linearGradient>
<linearGradient id="paint12_linear_" x1="400.963" y1="-20.9631" x2="418.43" y2="108.413" gradientUnits="userSpaceOnUse">
<stop stop-color="#FF008E" stop-opacity="0"/>
<stop offset="1" stop-color="#FFCD1E"/>
</linearGradient>
<linearGradient id="paint13_linear_" x1="1475.56" y1="66.8005" x2="1458.09" y2="-62.5757" gradientUnits="userSpaceOnUse">
<stop stop-color="#FF008E" stop-opacity="0"/>
<stop offset="1" stop-color="#FFCD1E"/>
</linearGradient>
<linearGradient id="paint14_linear_" x1="1117.36" y1="46.5683" x2="1120.54" y2="-19.8926" gradientUnits="userSpaceOnUse">
<stop stop-color="#8257E5"/>
<stop offset="1" stop-color="#FF008E" stop-opacity="0"/>
</linearGradient>
<linearGradient id="paint15_linear_" x1="759.163" y1="32.8672" x2="762.336" y2="99.3281" gradientUnits="userSpaceOnUse">
<stop stop-color="#8257E5"/>
<stop offset="1" stop-color="#FF008E" stop-opacity="0"/>
</linearGradient>
<linearGradient id="paint16_linear_" x1="1693.51" y1="796.809" x2="1579.31" y2="311.302" gradientUnits="userSpaceOnUse">
<stop stop-color="#FF008E"/>
<stop offset="1" stop-color="#FFCD1E"/>
</linearGradient>
<linearGradient id="paint17_linear_" x1="1067.43" y1="746.25" x2="1070.51" y2="812.716" gradientUnits="userSpaceOnUse">
<stop stop-color="#8257E5"/>
<stop offset="1" stop-color="#FF008E" stop-opacity="0"/>
</linearGradient>
<linearGradient id="paint18_linear_" x1="1067.38" y1="779.849" x2="1070.46" y2="846.314" gradientUnits="userSpaceOnUse">
<stop stop-color="#8257E5"/>
<stop offset="1" stop-color="#FF008E" stop-opacity="0"/>
</linearGradient>
<linearGradient id="paint19_linear_" x1="1067.28" y1="847.38" x2="1050.01" y2="717.978" gradientUnits="userSpaceOnUse">
<stop stop-color="#FF008E" stop-opacity="0"/>
<stop offset="1" stop-color="#FFCD1E"/>
</linearGradient>
<linearGradient id="paint20_linear_" x1="-7.17934" y1="758.004" x2="10.0931" y2="887.406" gradientUnits="userSpaceOnUse">
<stop stop-color="#FF008E" stop-opacity="0"/>
<stop offset="1" stop-color="#FFCD1E"/>
</linearGradient>
<linearGradient id="paint21_linear_" x1="350.985" y1="778.774" x2="347.712" y2="845.23" gradientUnits="userSpaceOnUse">
<stop stop-color="#8257E5"/>
<stop offset="1" stop-color="#FF008E" stop-opacity="0"/>
</linearGradient>
<linearGradient id="paint22_linear_" x1="709.164" y1="793.012" x2="706.091" y2="726.547" gradientUnits="userSpaceOnUse">
<stop stop-color="#8257E5"/>
<stop offset="1" stop-color="#FF008E" stop-opacity="0"/>
</linearGradient>
<linearGradient id="paint23_linear_" x1="1737.04" y1="791.898" x2="1622.85" y2="306.391" gradientUnits="userSpaceOnUse">
<stop stop-color="#FF008E"/>
<stop offset="1" stop-color="#FFCD1E"/>
</linearGradient>
<linearGradient id="paint24_linear_" x1="1110.97" y1="741.339" x2="1114.04" y2="807.805" gradientUnits="userSpaceOnUse">
<stop stop-color="#8257E5"/>
<stop offset="1" stop-color="#FF008E" stop-opacity="0"/>
</linearGradient>
<linearGradient id="paint25_linear_" x1="1110.92" y1="774.938" x2="1113.99" y2="841.404" gradientUnits="userSpaceOnUse">
<stop stop-color="#8257E5"/>
<stop offset="1" stop-color="#FF008E" stop-opacity="0"/>
</linearGradient>
<linearGradient id="paint26_linear_" x1="1110.81" y1="842.469" x2="1093.54" y2="713.067" gradientUnits="userSpaceOnUse">
<stop stop-color="#FF008E" stop-opacity="0"/>
<stop offset="1" stop-color="#FFCD1E"/>
</linearGradient>
<linearGradient id="paint27_linear_" x1="36.3546" y1="753.094" x2="53.627" y2="882.496" gradientUnits="userSpaceOnUse">
<stop stop-color="#FF008E" stop-opacity="0"/>
<stop offset="1" stop-color="#FFCD1E"/>
</linearGradient>
<linearGradient id="paint28_linear_" x1="394.517" y1="773.863" x2="391.244" y2="840.319" gradientUnits="userSpaceOnUse">
<stop stop-color="#8257E5"/>
<stop offset="1" stop-color="#FF008E" stop-opacity="0"/>
</linearGradient>
<linearGradient id="paint29_linear_" x1="752.696" y1="788.102" x2="749.623" y2="721.636" gradientUnits="userSpaceOnUse">
<stop stop-color="#8257E5"/>
<stop offset="1" stop-color="#FF008E" stop-opacity="0"/>
</linearGradient>
<radialGradient id="paint30_radial_" cx="0" cy="0" r="1" gradientUnits="userSpaceOnUse" gradientTransform="translate(918 116) rotate(-90) scale(559)">
<stop stop-color="#FFC323"/>
<stop offset="1" stop-color="#121214" stop-opacity="0"/>
</radialGradient>
<radialGradient id="paint31_radial_" cx="0" cy="0" r="1" gradientUnits="userSpaceOnUse" gradientTransform="translate(596 116) rotate(-90) scale(559)">
<stop stop-color="#FF3D6E"/>
<stop offset="1" stop-color="#121214" stop-opacity="0"/>
</radialGradient>
<linearGradient id="paint32_linear_" x1="-180.665" y1="278.571" x2="-65.7383" y2="763.906" gradientUnits="userSpaceOnUse">
<stop stop-color="#FF008E"/>
<stop offset="1" stop-color="#FFCD1E"/>
</linearGradient>
<linearGradient id="paint33_linear_" x1="445.487" y1="328.191" x2="442.315" y2="261.73" gradientUnits="userSpaceOnUse">
<stop stop-color="#8257E5"/>
<stop offset="1" stop-color="#FF008E" stop-opacity="0"/>
</linearGradient>
<linearGradient id="paint34_linear_" x1="445.487" y1="294.592" x2="442.315" y2="228.131" gradientUnits="userSpaceOnUse">
<stop stop-color="#8257E5"/>
<stop offset="1" stop-color="#FF008E" stop-opacity="0"/>
</linearGradient>
<linearGradient id="paint35_linear_" x1="445.488" y1="227.061" x2="462.954" y2="356.437" gradientUnits="userSpaceOnUse">
<stop stop-color="#FF008E" stop-opacity="0"/>
<stop offset="1" stop-color="#FFCD1E"/>
</linearGradient>
<linearGradient id="paint36_linear_" x1="1520.08" y1="314.825" x2="1502.62" y2="185.448" gradientUnits="userSpaceOnUse">
<stop stop-color="#FF008E" stop-opacity="0"/>
<stop offset="1" stop-color="#FFCD1E"/>
</linearGradient>
<linearGradient id="paint37_linear_" x1="1161.89" y1="294.592" x2="1165.06" y2="228.131" gradientUnits="userSpaceOnUse">
<stop stop-color="#8257E5"/>
<stop offset="1" stop-color="#FF008E" stop-opacity="0"/>
</linearGradient>
<linearGradient id="paint38_linear_" x1="803.688" y1="280.891" x2="806.86" y2="347.352" gradientUnits="userSpaceOnUse">
<stop stop-color="#8257E5"/>
<stop offset="1" stop-color="#FF008E" stop-opacity="0"/>
</linearGradient>
<linearGradient id="paint39_linear_" x1="-224.19" y1="283.547" x2="-109.263" y2="768.882" gradientUnits="userSpaceOnUse">
<stop stop-color="#FF008E"/>
<stop offset="1" stop-color="#FFCD1E"/>
</linearGradient>
<linearGradient id="paint40_linear_" x1="401.963" y1="333.167" x2="398.79" y2="266.706" gradientUnits="userSpaceOnUse">
<stop stop-color="#8257E5"/>
<stop offset="1" stop-color="#FF008E" stop-opacity="0"/>
</linearGradient>
<linearGradient id="paint41_linear_" x1="401.963" y1="299.568" x2="398.79" y2="233.107" gradientUnits="userSpaceOnUse">
<stop stop-color="#8257E5"/>
<stop offset="1" stop-color="#FF008E" stop-opacity="0"/>
</linearGradient>
<linearGradient id="paint42_linear_" x1="401.963" y1="232.037" x2="419.43" y2="361.413" gradientUnits="userSpaceOnUse">
<stop stop-color="#FF008E" stop-opacity="0"/>
<stop offset="1" stop-color="#FFCD1E"/>
</linearGradient>
<linearGradient id="paint43_linear_" x1="1476.56" y1="319.8" x2="1459.09" y2="190.424" gradientUnits="userSpaceOnUse">
<stop stop-color="#FF008E" stop-opacity="0"/>
<stop offset="1" stop-color="#FFCD1E"/>
</linearGradient>
<linearGradient id="paint44_linear_" x1="1118.36" y1="299.568" x2="1121.54" y2="233.107" gradientUnits="userSpaceOnUse">
<stop stop-color="#8257E5"/>
<stop offset="1" stop-color="#FF008E" stop-opacity="0"/>
</linearGradient>
<linearGradient id="paint45_linear_" x1="760.163" y1="285.867" x2="763.336" y2="352.328" gradientUnits="userSpaceOnUse">
<stop stop-color="#8257E5"/>
<stop offset="1" stop-color="#FF008E" stop-opacity="0"/>
</linearGradient>
<clipPath id="clip0_">
<rect width="1440" height="820" fill="white" transform="translate(36)"/>
</clipPath>
<clipPath id="clip1_">
<rect width="1477" height="36" fill="white" transform="translate(0 251)"/>
</clipPath>
</defs>
</svg>
