<svg width="375" height="812" viewBox="0 0 375 812" fill="none" xmlns="http://www.w3.org/2000/svg">
<g clip-path="url(#clip0_)">
<rect width="375" height="812" fill="#202024"/>
<circle cx="278" cy="99" r="300" transform="rotate(-180 278 99)" fill="url(#paint0_radial_)"/>
<circle cx="98" cy="99" r="300" transform="rotate(-180 98 99)" fill="url(#paint1_radial_)"/>
<mask id="mask0_" style="mask-type:alpha" maskUnits="userSpaceOnUse" x="0" y="0" width="375" height="812">
<rect width="375" height="812" fill="#202024"/>
</mask>
<g mask="url(#mask0_)">
<path d="M375 168.101V-310.699L187.478 -418.486L-0.0446777 -310.699V168.101L187.478 275.894L375 168.101Z" fill="url(#paint2_linear_)"/>
<g style="mix-blend-mode:luminosity" opacity="0.4">
<path d="M1.83663 61.3931V168.797L95.1275 222.505L188.418 168.797V61.3931L95.1275 7.68577L1.83663 61.3931Z" fill="url(#paint3_linear_)"/>
<path d="M1.83663 -46.0166V61.3877L95.1275 115.095L188.418 61.3877V-46.0166L95.1275 -99.7239L1.83663 -46.0166Z" fill="url(#paint4_linear_)"/>
<path d="M281.709 -99.6961V7.70821L188.418 61.4155L95.1274 7.70821V-99.6961L188.418 -153.403L281.709 -99.6961Z" fill="url(#paint5_linear_)"/>
<path d="M188.418 168.797V61.3927L281.709 7.68539L375 61.3927V168.797L281.709 222.504L188.418 168.797Z" fill="url(#paint6_linear_)"/>
<path d="M375 -46.0166V61.3877L281.709 115.095L188.418 61.3877V-46.0166L281.709 -99.7239L375 -46.0166Z" fill="url(#paint7_linear_)"/>
<path d="M281.709 222.527V115.123L188.418 61.4155L95.1274 115.123L95.1274 222.527L188.418 276.235L281.709 222.527Z" fill="url(#paint8_linear_)"/>
</g>
</g>
<g clip-path="url(#clip1_)">
<path d="M375 610H0V1422H375V610Z" fill="#202024"/>
<path d="M278 409C112.315 409 -22 543.315 -22 709C-22 874.685 112.315 1009 278 1009C443.685 1009 578 874.685 578 709C578 543.315 443.685 409 278 409Z" fill="url(#paint9_radial_)"/>
<path d="M98 409C-67.6854 409 -202 543.315 -202 709C-202 874.685 -67.6854 1009 98 1009C263.685 1009 398 874.685 398 709C398 543.315 263.685 409 98 409Z" fill="url(#paint10_radial_)"/>
<mask id="mask1_" style="mask-type:alpha" maskUnits="userSpaceOnUse" x="0" y="610" width="375" height="812">
<path d="M375 610H0V1422H375V610Z" fill="#202024"/>
</mask>
<g mask="url(#mask1_)">
<path d="M375 778.101V299.301L187.478 191.514L-0.0446777 299.301V778.101L187.478 885.894L375 778.101Z" fill="url(#paint11_linear_)"/>
<g style="mix-blend-mode:luminosity" opacity="0.4">
<path style="mix-blend-mode:luminosity" opacity="0.4" d="M1.83667 671.393V778.797L95.1276 832.505L188.418 778.797V671.393L95.1276 617.686L1.83667 671.393Z" fill="url(#paint12_linear_)"/>
<path style="mix-blend-mode:luminosity" opacity="0.4" d="M1.83667 563.983V671.388L95.1276 725.095L188.418 671.388V563.983L95.1276 510.276L1.83667 563.983Z" fill="url(#paint13_linear_)"/>
<path style="mix-blend-mode:luminosity" opacity="0.4" d="M281.709 510.304V617.708L188.418 671.416L95.1274 617.708V510.304L188.418 456.597L281.709 510.304Z" fill="url(#paint14_linear_)"/>
<path style="mix-blend-mode:luminosity" opacity="0.4" d="M188.418 778.797V671.393L281.709 617.685L375 671.393V778.797L281.709 832.504L188.418 778.797Z" fill="url(#paint15_linear_)"/>
<path style="mix-blend-mode:luminosity" opacity="0.4" d="M375 563.983V671.388L281.709 725.095L188.418 671.388V563.983L281.709 510.276L375 563.983Z" fill="url(#paint16_linear_)"/>
<path style="mix-blend-mode:luminosity" opacity="0.4" d="M281.709 832.527V725.123L188.418 671.416L95.1274 725.123V832.527L188.418 886.234L281.709 832.527Z" fill="url(#paint17_linear_)"/>
</g>
</g>
</g>
</g>
<defs>
<radialGradient id="paint0_radial_" cx="0" cy="0" r="1" gradientUnits="userSpaceOnUse" gradientTransform="translate(278 99) rotate(90) scale(300)">
<stop stop-color="#FFC323"/>
<stop offset="1" stop-color="#121214" stop-opacity="0"/>
</radialGradient>
<radialGradient id="paint1_radial_" cx="0" cy="0" r="1" gradientUnits="userSpaceOnUse" gradientTransform="translate(98 99) rotate(90) scale(300)">
<stop stop-color="#FF3D6E"/>
<stop offset="1" stop-color="#121214" stop-opacity="0"/>
</radialGradient>
<linearGradient id="paint2_linear_" x1="-67.9497" y1="58.9385" x2="436.115" y2="232.357" gradientUnits="userSpaceOnUse">
<stop stop-color="#FF008E"/>
<stop offset="1" stop-color="#FFCD1E"/>
</linearGradient>
<linearGradient id="paint3_linear_" x1="95.1275" y1="217.565" x2="2.23833" y2="59.047" gradientUnits="userSpaceOnUse">
<stop stop-color="#8257E5"/>
<stop offset="1" stop-color="#FF008E" stop-opacity="0"/>
</linearGradient>
<linearGradient id="paint4_linear_" x1="95.1275" y1="110.155" x2="2.23831" y2="-48.3627" gradientUnits="userSpaceOnUse">
<stop stop-color="#8257E5"/>
<stop offset="1" stop-color="#FF008E" stop-opacity="0"/>
</linearGradient>
<linearGradient id="paint5_linear_" x1="95.1275" y1="-105.732" x2="281.421" y2="6.68569" gradientUnits="userSpaceOnUse">
<stop stop-color="#FF008E" stop-opacity="0"/>
<stop offset="1" stop-color="#FFCD1E"/>
</linearGradient>
<linearGradient id="paint6_linear_" x1="375" y1="174.833" x2="188.706" y2="62.4152" gradientUnits="userSpaceOnUse">
<stop stop-color="#FF008E" stop-opacity="0"/>
<stop offset="1" stop-color="#FFCD1E"/>
</linearGradient>
<linearGradient id="paint7_linear_" x1="281.709" y1="110.155" x2="374.598" y2="-48.3627" gradientUnits="userSpaceOnUse">
<stop stop-color="#8257E5"/>
<stop offset="1" stop-color="#FF008E" stop-opacity="0"/>
</linearGradient>
<linearGradient id="paint8_linear_" x1="188.418" y1="66.3552" x2="281.307" y2="224.873" gradientUnits="userSpaceOnUse">
<stop stop-color="#8257E5"/>
<stop offset="1" stop-color="#FF008E" stop-opacity="0"/>
</linearGradient>
<radialGradient id="paint9_radial_" cx="0" cy="0" r="1" gradientUnits="userSpaceOnUse" gradientTransform="translate(278 709) rotate(-90) scale(300)">
<stop stop-color="#FFC323"/>
<stop offset="1" stop-color="#121214" stop-opacity="0"/>
</radialGradient>
<radialGradient id="paint10_radial_" cx="0" cy="0" r="1" gradientUnits="userSpaceOnUse" gradientTransform="translate(98 709) rotate(-90) scale(300)">
<stop stop-color="#FF3D6E"/>
<stop offset="1" stop-color="#121214" stop-opacity="0"/>
</radialGradient>
<linearGradient id="paint11_linear_" x1="-67.9497" y1="668.939" x2="436.115" y2="842.357" gradientUnits="userSpaceOnUse">
<stop stop-color="#FF008E"/>
<stop offset="1" stop-color="#FFCD1E"/>
</linearGradient>
<linearGradient id="paint12_linear_" x1="95.1275" y1="827.565" x2="2.23836" y2="669.047" gradientUnits="userSpaceOnUse">
<stop stop-color="#8257E5"/>
<stop offset="1" stop-color="#FF008E" stop-opacity="0"/>
</linearGradient>
<linearGradient id="paint13_linear_" x1="95.1275" y1="720.155" x2="2.23835" y2="561.637" gradientUnits="userSpaceOnUse">
<stop stop-color="#8257E5"/>
<stop offset="1" stop-color="#FF008E" stop-opacity="0"/>
</linearGradient>
<linearGradient id="paint14_linear_" x1="95.1275" y1="504.268" x2="281.421" y2="616.686" gradientUnits="userSpaceOnUse">
<stop stop-color="#FF008E" stop-opacity="0"/>
<stop offset="1" stop-color="#FFCD1E"/>
</linearGradient>
<linearGradient id="paint15_linear_" x1="375" y1="784.833" x2="188.706" y2="672.415" gradientUnits="userSpaceOnUse">
<stop stop-color="#FF008E" stop-opacity="0"/>
<stop offset="1" stop-color="#FFCD1E"/>
</linearGradient>
<linearGradient id="paint16_linear_" x1="281.709" y1="720.155" x2="374.598" y2="561.637" gradientUnits="userSpaceOnUse">
<stop stop-color="#8257E5"/>
<stop offset="1" stop-color="#FF008E" stop-opacity="0"/>
</linearGradient>
<linearGradient id="paint17_linear_" x1="188.418" y1="676.355" x2="281.307" y2="834.873" gradientUnits="userSpaceOnUse">
<stop stop-color="#8257E5"/>
<stop offset="1" stop-color="#FF008E" stop-opacity="0"/>
</linearGradient>
<clipPath id="clip0_">
<rect width="375" height="812" fill="white"/>
</clipPath>
<clipPath id="clip1_">
<rect width="375" height="62" fill="white" transform="translate(0 610)"/>
</clipPath>
</defs>
</svg>
